<svg xmlns="http://www.w3.org/2000/svg" width="256" height="256" viewBox="0 0 256 256"><path fill="#fff" d="M66.4,54.454h46.658l-66.4,138.184H0ZM150.74,192.638h48.452L245.85,90.346s3.967-12.927,0-23.33c-2.8-7.34-12.27-12.78-17.946-14.357-6.74-1.872-22.84-.02-30.506,3.589a31.029,31.029,0,0,0-16.151,17.946s6.683-6.187,12.562-8.973a9.519,9.519,0,0,1,8.972,0A7.657,7.657,0,0,1,206.37,72.4c-0.728,5.689-5.383,12.562-5.383,12.562ZM17.945,122.649A36.426,36.426,0,0,1,7.178,97.525C6.783,84.661,15.091,65.24,21.534,56.249c10.007-13.964,21.477-25.806,35.89-32.3,17.733-7.992,37.685-8.973,37.685-8.973s41.942,3.763,39.479,39.481c-0.857,12.436-17.028,40.208-23.329,55.633-4.887,11.966-10.412,23.353-14.356,32.3C88.821,160.734,84.343,171.1,84.343,171.1s-2,24.472,8.973,43.071c9.314,15.79,30.559,25.66,43.069,30.508,41.462,16.067,91.52-17.946,91.52-17.946s23.842-24.97,26.918-41.276c1.754-9.3,1.322-22.546,0-30.508-2.653-15.982-8.972-23.33-8.972-23.33s7.055,21.551,5.383,41.276c-1.47,17.35-10.712,32.346-23.329,43.07s-35.586,22.181-53.835,21.535c-20.623-.729-37.685-14.356-37.685-14.356s-13.035-16.915-8.973-39.482c1.635-9.081,6.722-22.448,12.562-34.1s14.969-29.667,19.74-39.481c5.373-11.055,8.69-15.358,10.767-23.33,7.245-27.81-1.795-43.07-1.795-43.07s-10.959-17.618-30.507-28.714C126.965,8.609,102.288,6,102.288,6S71,6.535,46.658,22.151C23.474,37.025,7.178,67.016,7.178,67.016S5.06,76.443,3.589,84.962a100.968,100.968,0,0,0-1.795,16.152c0.52,15.6,7.178,19.74,7.178,19.74a6.76,6.76,0,0,0,3.589,1.8A22.174,22.174,0,0,0,17.945,122.649Z"/></svg>